<?xml version="1.0" standalone="no"?>
<!DOCTYPE svg PUBLIC "-//W3C//DTD SVG 20010904//EN"
 "http://www.w3.org/TR/2001/REC-SVG-20010904/DTD/svg10.dtd">
<svg version="1.0" xmlns="http://www.w3.org/2000/svg"
 width="150.000000pt" height="200.000000pt" viewBox="100 0 230.000000 264.000000"
 preserveAspectRatio="xMidYMid meet">
<metadata>
Created by potrace 1.15, written by Peter Selinger 2001-2017
</metadata>
<g transform="translate(0.000000,264.000000) scale(0.100000,-0.100000)"
fill="#000000" stroke="none">
<path d="M573 2633 c317 -2 837 -2 1155 0 317 1 57 2 -578 2 -635 0 -895 -1
-577 -2z"/>
<path d="M852 2443 c-51 -25 -76 -68 -80 -138 -2 -45 2 -69 16 -95 23 -41 75
-80 109 -80 21 0 23 -4 18 -22 -4 -13 -27 -43 -50 -68 -79 -81 -78 -114 6
-215 22 -27 48 -63 57 -80 21 -41 19 -112 -6 -168 -27 -60 -15 -60 22 -1 60
94 46 196 -40 295 -32 37 -54 72 -54 85 0 13 14 39 31 59 17 20 37 52 44 73
10 27 19 38 37 40 64 8 68 10 68 52 0 48 -24 56 -33 10 -8 -36 -40 -47 -91
-30 -87 28 -109 172 -38 243 46 46 132 37 132 -14 0 -11 7 -19 15 -19 11 0 15
11 15 39 0 32 -4 40 -22 45 -43 11 -123 6 -156 -11z"/>
<path d="M1082 2173 c-63 -31 -94 -109 -78 -197 7 -35 51 -90 91 -112 19 -11
18 -14 -22 -57 -61 -66 -58 -79 30 -190 36 -46 44 -93 23 -152 -12 -37 -13
-45 -2 -36 23 19 46 77 46 114 0 50 -15 85 -61 139 -21 26 -39 53 -39 61 0 8
15 37 33 64 30 46 35 50 74 50 71 2 83 9 83 54 0 47 -24 54 -33 9 -8 -36 -40
-47 -92 -30 -121 40 -96 272 29 272 42 0 66 -16 66 -43 0 -11 7 -19 15 -19 11
0 15 11 15 39 0 32 -4 40 -22 45 -43 11 -123 6 -156 -11z"/>
<path d="M1305 1479 c28 -5 78 -14 113 -19 140 -23 242 -85 242 -147 0 -15 -9
-43 -20 -60 -26 -44 -10 -42 29 2 19 22 31 47 31 65 0 89 -180 171 -370 169
l-75 -1 50 -9z"/>
<path d="M662 1414 c-59 -29 -112 -85 -112 -117 2 -113 232 -197 537 -198 124
0 251 13 279 29 7 4 -69 8 -169 8 -324 3 -556 59 -585 142 -15 43 7 80 77 130
53 39 43 41 -27 6z"/>
<path d="M1025 1339 c-49 -5 -127 -19 -173 -29 -80 -19 -169 -56 -159 -67 3
-2 14 0 26 6 32 17 217 58 316 70 225 27 461 2 497 -53 12 -17 9 -61 -4 -74
-6 -6 -9 -14 -6 -17 3 -4 22 8 42 25 65 58 41 100 -72 126 -75 18 -353 25
-467 13z"/>
<path d="M1993 1213 c101 -68 143 -158 117 -252 -13 -51 -69 -115 -124 -144
-54 -28 -172 -30 -235 -4 -61 25 -63 15 -2 -12 187 -80 334 -33 387 124 41
117 -20 266 -123 306 -70 26 -76 20 -20 -18z"/>
<path d="M562 1095 c-2 -145 14 -240 60 -360 41 -111 91 -187 168 -259 115
-105 268 -154 403 -128 69 14 177 64 204 95 18 20 18 20 -22 -1 -118 -59 -276
-79 -377 -48 -230 69 -402 360 -428 720 l-7 101 -1 -120z"/>
</g>
</svg>
