<?xml version="1.0" standalone="no"?>
<!DOCTYPE svg PUBLIC "-//W3C//DTD SVG 20010904//EN"
 "http://www.w3.org/TR/2001/REC-SVG-20010904/DTD/svg10.dtd">
<svg version="1.0" xmlns="http://www.w3.org/2000/svg"
 width="225.000000pt" height="225.000000pt" viewBox="0 0 225.000000 225.000000"
 preserveAspectRatio="xMidYMid meet">
<metadata>
Created by potrace 1.15, written by Peter Selinger 2001-2017
</metadata>
<g transform="translate(0.000000,225.000000) scale(0.100000,-0.100000)"
fill="#000000" stroke="none">
<path d="M275 2236 c-140 -35 -234 -133 -264 -274 -16 -74 -16 -1600 0 -1674
16 -76 50 -137 102 -185 57 -53 107 -78 182 -93 88 -16 1655 -9 1707 8 91 31
188 127 225 222 16 41 18 111 21 859 3 887 3 879 -54 977 -35 60 -104 119
-173 146 l-56 23 -820 2 c-629 1 -832 -1 -870 -11z m1671 -37 c74 -13 131 -46
182 -105 81 -91 77 -45 77 -969 0 -765 -1 -823 -18 -872 -21 -61 -82 -134
-140 -167 -79 -46 -112 -47 -962 -44 l-800 3 -56 26 c-71 33 -125 87 -158 158
l-26 56 0 840 0 840 26 56 c45 96 129 162 228 179 74 12 1578 12 1647 -1z"/>
<path d="M1040 1879 c-139 -21 -264 -113 -324 -238 -31 -65 -31 -67 -30 -224
l0 -159 -45 5 c-25 3 -60 9 -77 12 -24 5 -37 2 -60 -18 -25 -22 -27 -28 -19
-53 10 -28 47 -52 144 -93 52 -21 58 -48 26 -115 -30 -63 -117 -163 -172 -198
-20 -12 -64 -32 -97 -44 -55 -20 -61 -25 -61 -50 0 -35 33 -56 135 -82 l75
-19 10 -42 c14 -56 30 -64 110 -51 103 16 136 7 270 -79 146 -92 270 -89 418
11 91 61 119 70 221 68 131 -3 124 -6 139 46 l13 47 75 19 c101 26 134 47 134
82 0 25 -6 30 -61 50 -80 29 -119 54 -181 118 -52 53 -113 155 -113 188 0 24
43 57 89 70 92 25 134 81 93 123 -23 23 -58 25 -146 12 l-49 -8 7 104 c13 191
-20 304 -113 394 -64 62 -94 81 -166 104 -76 25 -163 32 -245 20z m224 -45
c108 -37 171 -90 234 -194 26 -43 27 -51 32 -225 l5 -179 34 -7 c22 -5 52 -1
83 8 45 15 49 15 68 -2 18 -17 19 -20 5 -35 -9 -10 -42 -27 -74 -39 -72 -26
-111 -63 -111 -103 0 -49 59 -148 130 -218 60 -60 108 -89 209 -127 l24 -9
-27 -17 c-15 -10 -57 -25 -94 -33 -90 -21 -95 -24 -107 -75 -6 -24 -14 -43
-18 -43 -4 1 -40 5 -81 9 -89 8 -132 -2 -211 -52 -131 -81 -162 -93 -239 -93
-84 1 -128 15 -193 62 -95 70 -129 82 -223 81 -47 -1 -94 -3 -104 -5 -16 -2
-22 6 -33 41 -15 53 -19 56 -99 71 -34 7 -77 21 -95 32 l-34 21 25 10 c71 27
149 70 183 98 71 59 156 192 157 246 0 35 -48 77 -122 107 -67 28 -83 42 -68
65 9 16 42 16 100 1 32 -8 53 -9 72 -1 l27 10 -1 164 c-1 155 0 167 24 218 49
104 130 175 238 210 73 24 219 25 284 3z"/>
</g>
</svg>
